<svg width="50" height="50" viewBox="0 0 50 50" fill="none" xmlns="http://www.w3.org/2000/svg">
<rect x="0.5" y="0.5" width="49" height="49" rx="24.5" fill="white"/>
<rect x="0.5" y="0.5" width="49" height="49" rx="24.5" stroke="#EAEEF4"/>
<path d="M21.6667 19.7915C21.325 19.7915 21.0417 19.5082 21.0417 19.1665V16.6665C21.0417 16.3248 21.325 16.0415 21.6667 16.0415C22.0083 16.0415 22.2917 16.3248 22.2917 16.6665V19.1665C22.2917 19.5082 22.0083 19.7915 21.6667 19.7915Z" fill="#7E92A2"/>
<path d="M28.3333 19.7915C27.9917 19.7915 27.7083 19.5082 27.7083 19.1665V16.6665C27.7083 16.3248 27.9917 16.0415 28.3333 16.0415C28.675 16.0415 28.9583 16.3248 28.9583 16.6665V19.1665C28.9583 19.5082 28.675 19.7915 28.3333 19.7915Z" fill="#7E92A2"/>
<path d="M22.0833 27.0832C21.975 27.0832 21.8667 27.0582 21.7667 27.0165C21.6583 26.9749 21.575 26.9165 21.4917 26.8415C21.3417 26.6832 21.25 26.4748 21.25 26.2498C21.25 26.1415 21.275 26.0332 21.3167 25.9332C21.3583 25.8332 21.4167 25.7415 21.4917 25.6582C21.575 25.5832 21.6583 25.5248 21.7667 25.4832C22.0667 25.3582 22.4417 25.4249 22.675 25.6582C22.825 25.8165 22.9167 26.0332 22.9167 26.2498C22.9167 26.2998 22.9083 26.3582 22.9 26.4165C22.8917 26.4665 22.875 26.5165 22.85 26.5665C22.8333 26.6165 22.8083 26.6665 22.775 26.7165C22.75 26.7582 22.7083 26.7998 22.675 26.8415C22.5167 26.9915 22.3 27.0832 22.0833 27.0832Z" fill="#7E92A2"/>
<path d="M25 27.0832C24.8917 27.0832 24.7833 27.0582 24.6833 27.0165C24.575 26.9748 24.4917 26.9165 24.4083 26.8415C24.2583 26.6832 24.1667 26.4748 24.1667 26.2498C24.1667 26.1415 24.1917 26.0332 24.2333 25.9332C24.275 25.8332 24.3333 25.7415 24.4083 25.6582C24.4917 25.5832 24.575 25.5248 24.6833 25.4832C24.9833 25.3498 25.3583 25.4248 25.5917 25.6582C25.7417 25.8165 25.8333 26.0332 25.8333 26.2498C25.8333 26.2998 25.825 26.3582 25.8167 26.4165C25.8083 26.4665 25.7917 26.5165 25.7667 26.5665C25.75 26.6165 25.725 26.6665 25.6917 26.7165C25.6667 26.7582 25.625 26.7998 25.5917 26.8415C25.4333 26.9915 25.2167 27.0832 25 27.0832Z" fill="#7E92A2"/>
<path d="M27.9167 27.0832C27.8083 27.0832 27.7 27.0582 27.6 27.0165C27.4917 26.9748 27.4083 26.9165 27.325 26.8415C27.2917 26.7998 27.2583 26.7582 27.225 26.7165C27.1917 26.6665 27.1667 26.6165 27.15 26.5665C27.125 26.5165 27.1083 26.4665 27.1 26.4165C27.0917 26.3582 27.0833 26.2998 27.0833 26.2498C27.0833 26.0332 27.175 25.8165 27.325 25.6582C27.4083 25.5832 27.4917 25.5248 27.6 25.4832C27.9083 25.3498 28.275 25.4248 28.5083 25.6582C28.6583 25.8165 28.75 26.0332 28.75 26.2498C28.75 26.2998 28.7417 26.3582 28.7333 26.4165C28.725 26.4665 28.7083 26.5165 28.6833 26.5665C28.6667 26.6165 28.6417 26.6665 28.6083 26.7165C28.5833 26.7582 28.5417 26.7998 28.5083 26.8415C28.35 26.9915 28.1333 27.0832 27.9167 27.0832Z" fill="#7E92A2"/>
<path d="M22.0833 29.9998C21.975 29.9998 21.8667 29.9749 21.7667 29.9332C21.6667 29.8915 21.575 29.8332 21.4917 29.7582C21.3417 29.5998 21.25 29.3832 21.25 29.1665C21.25 29.0582 21.275 28.9498 21.3167 28.8498C21.3583 28.7415 21.4167 28.6498 21.4917 28.5748C21.8 28.2665 22.3667 28.2665 22.675 28.5748C22.825 28.7332 22.9167 28.9498 22.9167 29.1665C22.9167 29.3832 22.825 29.5998 22.675 29.7582C22.5167 29.9082 22.3 29.9998 22.0833 29.9998Z" fill="#7E92A2"/>
<path d="M25 29.9998C24.7833 29.9998 24.5667 29.9082 24.4083 29.7582C24.2583 29.5998 24.1667 29.3832 24.1667 29.1665C24.1667 29.0582 24.1917 28.9498 24.2333 28.8498C24.275 28.7415 24.3333 28.6498 24.4083 28.5748C24.7167 28.2665 25.2833 28.2665 25.5917 28.5748C25.6667 28.6498 25.725 28.7415 25.7667 28.8498C25.8083 28.9498 25.8333 29.0582 25.8333 29.1665C25.8333 29.3832 25.7417 29.5998 25.5917 29.7582C25.4333 29.9082 25.2167 29.9998 25 29.9998Z" fill="#7E92A2"/>
<path d="M27.9167 29.9999C27.7 29.9999 27.4833 29.9082 27.325 29.7582C27.25 29.6832 27.1917 29.5915 27.15 29.4832C27.1083 29.3832 27.0833 29.2749 27.0833 29.1665C27.0833 29.0582 27.1083 28.9499 27.15 28.8499C27.1917 28.7415 27.25 28.6499 27.325 28.5749C27.5167 28.3832 27.8083 28.2915 28.075 28.3499C28.1333 28.3582 28.1833 28.3749 28.2333 28.3999C28.2833 28.4165 28.3333 28.4415 28.3833 28.4749C28.425 28.4999 28.4667 28.5415 28.5083 28.5749C28.6583 28.7332 28.75 28.9499 28.75 29.1665C28.75 29.3832 28.6583 29.5999 28.5083 29.7582C28.35 29.9082 28.1333 29.9999 27.9167 29.9999Z" fill="#7E92A2"/>
<path d="M32.0833 23.1998H17.9167C17.575 23.1998 17.2917 22.9165 17.2917 22.5748C17.2917 22.2331 17.575 21.9498 17.9167 21.9498H32.0833C32.425 21.9498 32.7083 22.2331 32.7083 22.5748C32.7083 22.9165 32.425 23.1998 32.0833 23.1998Z" fill="#7E92A2"/>
<path d="M28.3333 33.9582H21.6667C18.625 33.9582 16.875 32.2082 16.875 29.1665V22.0832C16.875 19.0415 18.625 17.2915 21.6667 17.2915H28.3333C31.375 17.2915 33.125 19.0415 33.125 22.0832V29.1665C33.125 32.2082 31.375 33.9582 28.3333 33.9582ZM21.6667 18.5415C19.2833 18.5415 18.125 19.6998 18.125 22.0832V29.1665C18.125 31.5498 19.2833 32.7082 21.6667 32.7082H28.3333C30.7167 32.7082 31.875 31.5498 31.875 29.1665V22.0832C31.875 19.6998 30.7167 18.5415 28.3333 18.5415H21.6667Z" fill="#7E92A2"/>
</svg>
