<svg width="50" height="50" viewBox="0 0 50 50" fill="none" xmlns="http://www.w3.org/2000/svg">
<rect x="0.5" y="0.5" width="49" height="49" rx="24.5" fill="white"/>
<rect x="0.5" y="0.5" width="49" height="49" rx="24.5" stroke="#EAEEF4"/>
<path d="M22.633 24.6832C22.608 24.6832 22.5913 24.6832 22.5663 24.6832C22.5247 24.6748 22.4663 24.6748 22.4163 24.6832C19.9997 24.6082 18.1747 22.7082 18.1747 20.3665C18.1747 17.9832 20.1163 16.0415 22.4997 16.0415C24.883 16.0415 26.8247 17.9832 26.8247 20.3665C26.8163 22.7082 24.983 24.6082 22.658 24.6832C22.6497 24.6832 22.6413 24.6832 22.633 24.6832ZM22.4997 17.2915C20.808 17.2915 19.4247 18.6748 19.4247 20.3665C19.4247 22.0332 20.7247 23.3748 22.383 23.4332C22.433 23.4248 22.5413 23.4248 22.6497 23.4332C24.283 23.3582 25.5663 22.0165 25.5747 20.3665C25.5747 18.6748 24.1913 17.2915 22.4997 17.2915Z" fill="#7E92A2"/>
<path d="M28.783 24.7915C28.758 24.7915 28.733 24.7915 28.708 24.7832C28.3663 24.8165 28.0163 24.5748 27.983 24.2332C27.9497 23.8915 28.158 23.5832 28.4997 23.5415C28.5997 23.5332 28.708 23.5332 28.7997 23.5332C30.0163 23.4665 30.9663 22.4665 30.9663 21.2415C30.9663 19.9748 29.9413 18.9498 28.6747 18.9498C28.333 18.9582 28.0497 18.6748 28.0497 18.3332C28.0497 17.9915 28.333 17.7082 28.6747 17.7082C30.6247 17.7082 32.2163 19.2998 32.2163 21.2498C32.2163 23.1665 30.7163 24.7165 28.808 24.7915C28.7997 24.7915 28.7913 24.7915 28.783 24.7915Z" fill="#7E92A2"/>
<path d="M22.6413 33.7915C21.008 33.7915 19.3663 33.3748 18.1247 32.5415C16.9663 31.7748 16.333 30.7248 16.333 29.5832C16.333 28.4415 16.9663 27.3832 18.1247 26.6082C20.6247 24.9498 24.6747 24.9498 27.158 26.6082C28.308 27.3748 28.9497 28.4248 28.9497 29.5665C28.9497 30.7082 28.3163 31.7665 27.158 32.5415C25.908 33.3748 24.2747 33.7915 22.6413 33.7915ZM18.8163 27.6582C18.0163 28.1915 17.583 28.8748 17.583 29.5915C17.583 30.2998 18.0247 30.9832 18.8163 31.5082C20.8913 32.8998 24.3913 32.8998 26.4663 31.5082C27.2663 30.9748 27.6997 30.2915 27.6997 29.5748C27.6997 28.8665 27.258 28.1832 26.4663 27.6582C24.3913 26.2748 20.8913 26.2748 18.8163 27.6582Z" fill="#7E92A2"/>
<path d="M30.283 32.2915C29.9913 32.2915 29.733 32.0915 29.6747 31.7915C29.608 31.4498 29.8247 31.1248 30.158 31.0498C30.683 30.9415 31.1663 30.7332 31.5413 30.4415C32.0163 30.0832 32.2747 29.6332 32.2747 29.1582C32.2747 28.6832 32.0163 28.2332 31.5497 27.8832C31.183 27.5998 30.7247 27.3998 30.183 27.2748C29.8497 27.1998 29.633 26.8665 29.708 26.5248C29.783 26.1915 30.1163 25.9748 30.458 26.0498C31.1747 26.2082 31.7997 26.4915 32.308 26.8832C33.083 27.4665 33.5247 28.2915 33.5247 29.1582C33.5247 30.0248 33.0747 30.8498 32.2997 31.4415C31.783 31.8415 31.133 32.1332 30.4163 32.2748C30.3663 32.2915 30.3247 32.2915 30.283 32.2915Z" fill="#7E92A2"/>
</svg>
