<svg width="50" height="50" viewBox="0 0 50 50" fill="none" xmlns="http://www.w3.org/2000/svg">
<path d="M24.9998 16.6665C20.4082 16.6665 16.6665 20.4082 16.6665 24.9998C16.6665 29.5915 20.4082 33.3332 24.9998 33.3332C29.5915 33.3332 33.3332 29.5915 33.3332 24.9998C33.3332 20.4082 29.5915 16.6665 24.9998 16.6665ZM27.7998 26.9165C28.0415 27.1582 28.0415 27.5582 27.7998 27.7998C27.6748 27.9248 27.5165 27.9832 27.3582 27.9832C27.1998 27.9832 27.0415 27.9248 26.9165 27.7998L24.9998 25.8832L23.0832 27.7998C22.9582 27.9248 22.7998 27.9832 22.6415 27.9832C22.4832 27.9832 22.3248 27.9248 22.1998 27.7998C21.9582 27.5582 21.9582 27.1582 22.1998 26.9165L24.1165 24.9998L22.1998 23.0832C21.9582 22.8415 21.9582 22.4415 22.1998 22.1998C22.4415 21.9582 22.8415 21.9582 23.0832 22.1998L24.9998 24.1165L26.9165 22.1998C27.1582 21.9582 27.5582 21.9582 27.7998 22.1998C28.0415 22.4415 28.0415 22.8415 27.7998 23.0832L25.8832 24.9998L27.7998 26.9165Z" fill="#7E92A2"/>
</svg>
