<svg width="50" height="50" viewBox="0 0 50 50" fill="none" xmlns="http://www.w3.org/2000/svg">
<rect x="0.5" y="0.5" width="49" height="49" rx="24.5" fill="white"/>
<rect x="0.5" y="0.5" width="49" height="49" rx="24.5" stroke="#EAEEF4"/>
<path d="M24.5834 33.1248C19.8751 33.1248 16.0417 29.2915 16.0417 24.5832C16.0417 19.8748 19.8751 16.0415 24.5834 16.0415C29.2917 16.0415 33.1251 19.8748 33.1251 24.5832C33.1251 29.2915 29.2917 33.1248 24.5834 33.1248ZM24.5834 17.2915C20.5584 17.2915 17.2917 20.5665 17.2917 24.5832C17.2917 28.5998 20.5584 31.8748 24.5834 31.8748C28.6084 31.8748 31.8751 28.5998 31.8751 24.5832C31.8751 20.5665 28.6084 17.2915 24.5834 17.2915Z" fill="#7E92A2"/>
<path d="M33.3334 33.9582C33.1751 33.9582 33.0167 33.8998 32.8917 33.7748L31.2251 32.1082C30.9834 31.8665 30.9834 31.4665 31.2251 31.2248C31.4667 30.9832 31.8667 30.9832 32.1084 31.2248L33.7751 32.8915C34.0168 33.1332 34.0168 33.5332 33.7751 33.7748C33.6501 33.8998 33.4917 33.9582 33.3334 33.9582Z" fill="#7E92A2"/>
</svg>
