<svg width="50" height="50" viewBox="0 0 50 50" fill="none" xmlns="http://www.w3.org/2000/svg">
<rect x="0.5" y="0.5" width="49" height="49" rx="24.5" fill="white"/>
<rect x="0.5" y="0.5" width="49" height="49" rx="24.5" stroke="#EAEEF4"/>
<path d="M32.5001 20.6084C32.4834 20.6084 32.4584 20.6084 32.4334 20.6084C28.0251 20.1667 23.6251 20.0001 19.2667 20.4417L17.5667 20.6084C17.2167 20.6417 16.9084 20.3917 16.8751 20.0417C16.8417 19.6917 17.0917 19.3917 17.4334 19.3584L19.1334 19.1917C23.5667 18.7417 28.0584 18.9167 32.5584 19.3584C32.9001 19.3917 33.1501 19.7001 33.1167 20.0417C33.0917 20.3667 32.8167 20.6084 32.5001 20.6084Z" fill="#7E92A2"/>
<path d="M22.0834 19.7665C22.05 19.7665 22.0167 19.7665 21.975 19.7582C21.6417 19.6998 21.4084 19.3748 21.4667 19.0415L21.65 17.9498C21.7834 17.1498 21.9667 16.0415 23.9084 16.0415H26.0917C28.0417 16.0415 28.225 17.1915 28.35 17.9582L28.5334 19.0415C28.5917 19.3832 28.3584 19.7082 28.025 19.7582C27.6834 19.8165 27.3584 19.5832 27.3084 19.2498L27.125 18.1665C27.0084 17.4415 26.9834 17.2998 26.1 17.2998H23.9167C23.0334 17.2998 23.0167 17.4165 22.8917 18.1582L22.7 19.2415C22.65 19.5498 22.3834 19.7665 22.0834 19.7665Z" fill="#7E92A2"/>
<path d="M27.675 33.9582H22.325C19.4167 33.9582 19.3 32.3498 19.2083 31.0498L18.6667 22.6582C18.6417 22.3165 18.9083 22.0165 19.25 21.9915C19.6 21.9748 19.8917 22.2332 19.9167 22.5748L20.4583 30.9665C20.55 32.2332 20.5833 32.7082 22.325 32.7082H27.675C29.425 32.7082 29.4583 32.2332 29.5417 30.9665L30.0833 22.5748C30.1083 22.2332 30.4083 21.9748 30.75 21.9915C31.0917 22.0165 31.3583 22.3082 31.3333 22.6582L30.7917 31.0498C30.7 32.3498 30.5833 33.9582 27.675 33.9582Z" fill="#7E92A2"/>
<path d="M26.3834 29.375H23.6084C23.2667 29.375 22.9834 29.0917 22.9834 28.75C22.9834 28.4083 23.2667 28.125 23.6084 28.125H26.3834C26.7251 28.125 27.0084 28.4083 27.0084 28.75C27.0084 29.0917 26.7251 29.375 26.3834 29.375Z" fill="#7E92A2"/>
<path d="M27.0834 26.0415H22.9167C22.5751 26.0415 22.2917 25.7582 22.2917 25.4165C22.2917 25.0748 22.5751 24.7915 22.9167 24.7915H27.0834C27.4251 24.7915 27.7084 25.0748 27.7084 25.4165C27.7084 25.7582 27.4251 26.0415 27.0834 26.0415Z" fill="#7E92A2"/>
</svg>
