<svg width="50" height="50" viewBox="0 0 50 50" fill="none" xmlns="http://www.w3.org/2000/svg">
<rect width="50" height="50" rx="25" fill="#514EF3"/>
<path d="M32.9167 24.0833V18.4167C32.9167 17.1667 32.3833 16.6667 31.0583 16.6667H27.6917C26.3667 16.6667 25.8333 17.1667 25.8333 18.4167V24.0833C25.8333 25.3333 26.3667 25.8333 27.6917 25.8333H31.0583C32.3833 25.8333 32.9167 25.3333 32.9167 24.0833Z" fill="white"/>
<path d="M24.1667 25.9167V31.5833C24.1667 32.8333 23.6333 33.3333 22.3083 33.3333H18.9417C17.6167 33.3333 17.0833 32.8333 17.0833 31.5833V25.9167C17.0833 24.6667 17.6167 24.1667 18.9417 24.1667H22.3083C23.6333 24.1667 24.1667 24.6667 24.1667 25.9167Z" fill="white"/>
<path d="M32.9167 31.5833V29.25C32.9167 28 32.3833 27.5 31.0583 27.5H27.6917C26.3667 27.5 25.8333 28 25.8333 29.25V31.5833C25.8333 32.8333 26.3667 33.3333 27.6917 33.3333H31.0583C32.3833 33.3333 32.9167 32.8333 32.9167 31.5833Z" fill="white"/>
<path d="M24.1667 20.75V18.4167C24.1667 17.1667 23.6333 16.6667 22.3083 16.6667H18.9417C17.6167 16.6667 17.0833 17.1667 17.0833 18.4167V20.75C17.0833 22 17.6167 22.5 18.9417 22.5H22.3083C23.6333 22.5 24.1667 22 24.1667 20.75Z" fill="white"/>
</svg>
