<svg width="50" height="50" viewBox="0 0 50 50" fill="none" xmlns="http://www.w3.org/2000/svg">
<rect x="0.5" y="0.5" width="49" height="49" rx="24.5" fill="white"/>
<rect x="0.5" y="0.5" width="49" height="49" rx="24.5" stroke="#EAEEF4"/>
<path d="M31.475 26.4582H28.1083C26.4333 26.4582 25.625 25.6832 25.625 24.0832V18.4165C25.625 16.8165 26.4417 16.0415 28.1083 16.0415H31.475C33.15 16.0415 33.9583 16.8165 33.9583 18.4165V24.0832C33.9583 25.6832 33.1417 26.4582 31.475 26.4582ZM28.1083 17.2915C27.05 17.2915 26.875 17.5748 26.875 18.4165V24.0832C26.875 24.9248 27.05 25.2082 28.1083 25.2082H31.475C32.5333 25.2082 32.7083 24.9248 32.7083 24.0832V18.4165C32.7083 17.5748 32.5333 17.2915 31.475 17.2915H28.1083V17.2915Z" fill="#7E92A2"/>
<path d="M31.475 33.458H28.1083C27.3384 33.458 26.8662 33.2791 26.5842 33.0093C26.3066 32.7436 26.125 32.3046 26.125 31.583V30.083C26.125 29.3628 26.308 28.9234 26.5869 28.6572C26.8704 28.3866 27.3432 28.208 28.1083 28.208H31.475C32.2449 28.208 32.7171 28.3869 32.9991 28.6567C33.2768 28.9225 33.4583 29.3614 33.4583 30.083V31.583C33.4583 32.3032 33.2754 32.7426 32.9964 33.0088C32.713 33.2794 32.2401 33.458 31.475 33.458ZM28.1083 28.458C27.5806 28.458 27.0756 28.5169 26.7412 28.8513C26.4031 29.1895 26.375 29.6759 26.375 30.083V31.583C26.375 31.9901 26.4031 32.4766 26.7412 32.8147C27.0756 33.1491 27.5806 33.208 28.1083 33.208H31.475C32.0027 33.208 32.5077 33.1491 32.8421 32.8147C33.1802 32.4766 33.2083 31.9901 33.2083 31.583V30.083C33.2083 29.6759 33.1802 29.1895 32.8421 28.8513C32.5077 28.5169 32.0027 28.458 31.475 28.458H28.1083Z" stroke="#7E92A2"/>
<path d="M21.8916 33.9582H18.525C16.85 33.9582 16.0416 33.1832 16.0416 31.5832V25.9165C16.0416 24.3165 16.8583 23.5415 18.525 23.5415H21.8916C23.5666 23.5415 24.375 24.3165 24.375 25.9165V31.5832C24.375 33.1832 23.5583 33.9582 21.8916 33.9582ZM18.525 24.7915C17.4666 24.7915 17.2916 25.0748 17.2916 25.9165V31.5832C17.2916 32.4248 17.4666 32.7082 18.525 32.7082H21.8916C22.95 32.7082 23.125 32.4248 23.125 31.5832V25.9165C23.125 25.0748 22.95 24.7915 21.8916 24.7915H18.525V24.7915Z" fill="#7E92A2"/>
<path d="M21.8916 22.2915H18.525C16.85 22.2915 16.0416 21.5165 16.0416 19.9165V18.4165C16.0416 16.8165 16.8583 16.0415 18.525 16.0415H21.8916C23.5666 16.0415 24.375 16.8165 24.375 18.4165V19.9165C24.375 21.5165 23.5583 22.2915 21.8916 22.2915ZM18.525 17.2915C17.4666 17.2915 17.2916 17.5748 17.2916 18.4165V19.9165C17.2916 20.7582 17.4666 21.0415 18.525 21.0415H21.8916C22.95 21.0415 23.125 20.7582 23.125 19.9165V18.4165C23.125 17.5748 22.95 17.2915 21.8916 17.2915H18.525V17.2915Z" fill="#7E92A2"/>
</svg>
