<svg width="50" height="50" viewBox="0 0 50 50" fill="none" xmlns="http://www.w3.org/2000/svg">
<rect width="50" height="50" rx="25" fill="#514EF3"/>
<path d="M31.6666 31.0503H24.1082C23.7332 31.0503 23.4249 30.7419 23.4249 30.3669C23.4249 29.9919 23.7332 29.6836 24.1082 29.6836H31.6666C32.0416 29.6836 32.3499 29.9919 32.3499 30.3669C32.3499 30.7503 32.0416 31.0503 31.6666 31.0503Z" fill="white"/>
<path d="M31.6666 25.8086H24.1082C23.7332 25.8086 23.4249 25.5003 23.4249 25.1253C23.4249 24.7503 23.7332 24.4419 24.1082 24.4419H31.6666C32.0416 24.4419 32.3499 24.7503 32.3499 25.1253C32.3499 25.5003 32.0416 25.8086 31.6666 25.8086Z" fill="white"/>
<path d="M31.6666 20.5586H24.1082C23.7332 20.5586 23.4249 20.2503 23.4249 19.8753C23.4249 19.5003 23.7332 19.1919 24.1082 19.1919H31.6666C32.0416 19.1919 32.3499 19.5003 32.3499 19.8753C32.3499 20.2503 32.0416 20.5586 31.6666 20.5586Z" fill="white"/>
<path d="M19.0916 21.6919C18.9082 21.6919 18.7332 21.6169 18.6082 21.4919L17.8499 20.7336C17.5832 20.4669 17.5832 20.0336 17.8499 19.7669C18.1166 19.5003 18.5499 19.5003 18.8166 19.7669L19.0916 20.0419L20.8749 18.2586C21.1416 17.9919 21.5749 17.9919 21.8416 18.2586C22.1082 18.5253 22.1082 18.9586 21.8416 19.2253L19.5749 21.4919C19.4416 21.6169 19.2749 21.6919 19.0916 21.6919Z" fill="white"/>
<path d="M19.0916 26.9419C18.9166 26.9419 18.7416 26.8753 18.6082 26.7419L17.8499 25.9836C17.5832 25.7169 17.5832 25.2836 17.8499 25.0169C18.1166 24.7503 18.5499 24.7503 18.8166 25.0169L19.0916 25.2919L20.8749 23.5086C21.1416 23.2419 21.5749 23.2419 21.8416 23.5086C22.1082 23.7753 22.1082 24.2086 21.8416 24.4753L19.5749 26.7419C19.4416 26.8753 19.2666 26.9419 19.0916 26.9419Z" fill="white"/>
<path d="M19.0916 31.9419C18.9166 31.9419 18.7416 31.8753 18.6082 31.7419L17.8499 30.9836C17.5832 30.7169 17.5832 30.2836 17.8499 30.0169C18.1166 29.7503 18.5499 29.7503 18.8166 30.0169L19.0916 30.2919L20.8749 28.5086C21.1416 28.2419 21.5749 28.2419 21.8416 28.5086C22.1082 28.7753 22.1082 29.2086 21.8416 29.4753L19.5749 31.7419C19.4416 31.8753 19.2666 31.9419 19.0916 31.9419Z" fill="white"/>
</svg>
