<svg width="50" height="50" viewBox="0 0 50 50" fill="none" xmlns="http://www.w3.org/2000/svg">
<rect width="50" height="50" rx="25" fill="#514EF3"/>
<path d="M32.5751 20.8168C31.8668 20.0334 30.6834 19.6418 28.9668 19.6418H28.7668V19.6084C28.7668 18.2084 28.7668 16.4751 25.6334 16.4751H24.3668C21.2334 16.4751 21.2334 18.2168 21.2334 19.6084V19.6501H21.0334C19.3084 19.6501 18.1334 20.0418 17.4251 20.8251C16.6001 21.7418 16.6251 22.9751 16.7084 23.8168L16.7168 23.8751L16.7813 24.5528C16.7932 24.6776 16.8604 24.7904 16.9653 24.859C17.1652 24.9898 17.4996 25.2054 17.7001 25.3168C17.8168 25.3918 17.9418 25.4584 18.0668 25.5251C19.4918 26.3084 21.0584 26.8334 22.6501 27.0918C22.7251 27.8751 23.0668 28.7918 24.8918 28.7918C26.7168 28.7918 27.0751 27.8834 27.1334 27.0751C28.8334 26.8001 30.4751 26.2084 31.9584 25.3418C32.0084 25.3168 32.0418 25.2918 32.0834 25.2668C32.414 25.0799 32.757 24.8497 33.0697 24.6241C33.1638 24.5562 33.2241 24.4511 33.2369 24.3357L33.2501 24.2168L33.2918 23.8251C33.3001 23.7751 33.3001 23.7334 33.3084 23.6751C33.3751 22.8334 33.3584 21.6834 32.5751 20.8168ZM25.9084 26.5251C25.9084 27.4084 25.9084 27.5418 24.8834 27.5418C23.8584 27.5418 23.8584 27.3834 23.8584 26.5334V25.4834H25.9084V26.5251ZM22.4251 19.6084C22.4251 18.1918 22.4251 17.6668 24.3668 17.6668H25.6334C27.5751 17.6668 27.5751 18.2001 27.5751 19.6084V19.6501H22.4251V19.6084Z" fill="white"/>
<path d="M32.3947 26.4452C32.6893 26.305 33.0287 26.5386 32.9992 26.8636L32.7001 30.1584C32.5251 31.8251 31.8418 33.5251 28.1751 33.5251H21.8251C18.1584 33.5251 17.4751 31.8251 17.3001 30.1668L17.0162 27.0436C16.987 26.7224 17.3186 26.4891 17.6125 26.622C18.562 27.0516 20.3146 27.8138 21.3973 28.0973C21.5342 28.1332 21.6449 28.2312 21.7049 28.3594C22.2107 29.4412 23.3077 30.0168 24.8918 30.0168C26.4602 30.0168 27.5711 29.419 28.0786 28.3346C28.1386 28.2063 28.2495 28.1083 28.3865 28.0722C29.5361 27.7697 31.4016 26.9178 32.3947 26.4452Z" fill="white"/>
</svg>
