<svg width="50" height="50" viewBox="0 0 50 50" fill="none" xmlns="http://www.w3.org/2000/svg">
<rect x="0.5" y="0.5" width="49" height="49" rx="24.5" fill="white"/>
<rect x="0.5" y="0.5" width="49" height="49" rx="24.5" stroke="#EAEEF4"/>
<path d="M28.3333 33.9582H21.6667C17.8167 33.9582 17.1 32.1665 16.9167 30.4248L16.2917 23.7498C16.2 22.8748 16.175 21.5832 17.0417 20.6165C17.7917 19.7832 19.0333 19.3832 20.8333 19.3832H29.1667C30.975 19.3832 32.2167 19.7915 32.9583 20.6165C33.825 21.5832 33.8 22.8748 33.7083 23.7582L33.0833 30.4165C32.9 32.1665 32.1833 33.9582 28.3333 33.9582ZM20.8333 20.6248C19.425 20.6248 18.4583 20.8998 17.9667 21.4498C17.5583 21.8998 17.425 22.5915 17.5333 23.6248L18.1583 30.2998C18.3 31.6165 18.6583 32.7082 21.6667 32.7082H28.3333C31.3333 32.7082 31.7 31.6165 31.8417 30.2915L32.4667 23.6332C32.575 22.5915 32.4417 21.8998 32.0333 21.4498C31.5417 20.8998 30.575 20.6248 29.1667 20.6248H20.8333Z" fill="#7E92A2"/>
<path d="M28.3333 20.6248C27.9917 20.6248 27.7083 20.3415 27.7083 19.9998V19.3332C27.7083 17.8498 27.7083 17.2915 25.6667 17.2915H24.3333C22.2917 17.2915 22.2917 17.8498 22.2917 19.3332V19.9998C22.2917 20.3415 22.0083 20.6248 21.6667 20.6248C21.325 20.6248 21.0417 20.3415 21.0417 19.9998V19.3332C21.0417 17.8665 21.0417 16.0415 24.3333 16.0415H25.6667C28.9583 16.0415 28.9583 17.8665 28.9583 19.3332V19.9998C28.9583 20.3415 28.675 20.6248 28.3333 20.6248Z" fill="#7E92A2"/>
<path d="M25 28.9582C22.7083 28.9582 22.7083 27.5415 22.7083 26.6915V25.8332C22.7083 24.6582 22.9917 24.3748 24.1667 24.3748H25.8333C27.0083 24.3748 27.2917 24.6582 27.2917 25.8332V26.6665C27.2917 27.5332 27.2917 28.9582 25 28.9582ZM23.9583 25.6248C23.9583 25.6915 23.9583 25.7665 23.9583 25.8332V26.6915C23.9583 27.5498 23.9583 27.7082 25 27.7082C26.0417 27.7082 26.0417 27.5748 26.0417 26.6832V25.8332C26.0417 25.7665 26.0417 25.6915 26.0417 25.6248C25.975 25.6248 25.9 25.6248 25.8333 25.6248H24.1667C24.1 25.6248 24.025 25.6248 23.9583 25.6248Z" fill="#7E92A2"/>
<path d="M26.6667 27.3082C26.3583 27.3082 26.0833 27.0748 26.05 26.7582C26.0083 26.4165 26.25 26.0998 26.5917 26.0582C28.7917 25.7832 30.9 24.9498 32.675 23.6582C32.95 23.4498 33.3417 23.5165 33.55 23.7998C33.75 24.0748 33.6917 24.4665 33.4083 24.6748C31.4583 26.0915 29.1583 26.9998 26.7417 27.3082C26.7167 27.3082 26.6917 27.3082 26.6667 27.3082Z" fill="#7E92A2"/>
<path d="M23.3333 27.3165C23.3083 27.3165 23.2833 27.3165 23.2583 27.3165C20.975 27.0582 18.75 26.2248 16.825 24.9082C16.5417 24.7165 16.4667 24.3248 16.6583 24.0415C16.85 23.7582 17.2417 23.6832 17.525 23.8748C19.2833 25.0748 21.3083 25.8332 23.3917 26.0748C23.7333 26.1165 23.9833 26.4248 23.9417 26.7665C23.9167 27.0832 23.65 27.3165 23.3333 27.3165Z" fill="#7E92A2"/>
</svg>
