<svg width="50" height="50" viewBox="0 0 50 50" fill="none" xmlns="http://www.w3.org/2000/svg">
<rect width="50" height="50" rx="25" fill="#514EF3"/>
<path d="M22.5 16.6665C20.3166 16.6665 18.5416 18.4415 18.5416 20.6248C18.5416 22.7665 20.2166 24.4998 22.4 24.5748C22.4666 24.5665 22.5333 24.5665 22.5833 24.5748C22.6 24.5748 22.6083 24.5748 22.625 24.5748C22.6333 24.5748 22.6333 24.5748 22.6416 24.5748C24.775 24.4998 26.45 22.7665 26.4583 20.6248C26.4583 18.4415 24.6833 16.6665 22.5 16.6665Z" fill="white"/>
<path d="M26.7333 26.7915C24.4083 25.2415 20.6166 25.2415 18.275 26.7915C17.2166 27.4998 16.6333 28.4582 16.6333 29.4832C16.6333 30.5082 17.2166 31.4582 18.2666 32.1582C19.4333 32.9415 20.9666 33.3332 22.5 33.3332C24.0333 33.3332 25.5666 32.9415 26.7333 32.1582C27.7833 31.4498 28.3666 30.4998 28.3666 29.4665C28.3583 28.4415 27.7833 27.4915 26.7333 26.7915Z" fill="white"/>
<path d="M31.6583 21.1165C31.7916 22.7332 30.6416 24.1498 29.05 24.3415C29.0416 24.3415 29.0416 24.3415 29.0333 24.3415H29.0083C28.9583 24.3415 28.9083 24.3415 28.8666 24.3582C28.0583 24.3998 27.3166 24.1415 26.7583 23.6665C27.6166 22.8998 28.1083 21.7498 28.0083 20.4998C27.95 19.8248 27.7166 19.2082 27.3666 18.6832C27.6833 18.5248 28.05 18.4248 28.425 18.3915C30.0583 18.2498 31.5166 19.4665 31.6583 21.1165Z" fill="white"/>
<path d="M33.325 28.8248C33.2583 29.6332 32.7416 30.3332 31.875 30.8082C31.0416 31.2665 29.9916 31.4832 28.95 31.4582C29.55 30.9165 29.9 30.2415 29.9666 29.5248C30.05 28.4915 29.5583 27.4998 28.575 26.7082C28.0166 26.2665 27.3666 25.9165 26.6583 25.6582C28.5 25.1248 30.8166 25.4832 32.2416 26.6332C33.0083 27.2498 33.4 28.0248 33.325 28.8248Z" fill="white"/>
</svg>
