<svg width="64" height="64" viewBox="0 0 64 64" fill="none" xmlns="http://www.w3.org/2000/svg">
<g clip-path="url(#clip0_3750_2415)">
<path fill-rule="evenodd" clip-rule="evenodd" d="M22.414 23.9957C25.3409 22.4702 28.6685 21.6078 32.1975 21.6078C43.9045 21.6078 53.3949 31.0982 53.3949 42.8052C53.3949 54.5123 43.9045 64.0027 32.1975 64.0027C20.5447 64.0027 11.0881 54.6001 11.0006 42.968L11 4.89506L22.414 0V23.9957ZM32.1975 53.404C26.3439 53.404 21.5987 48.6588 21.5987 42.8053C21.5987 36.9518 26.3439 32.2065 32.1975 32.2065C38.051 32.2065 42.7962 36.9518 42.7962 42.8053C42.7962 48.6588 38.051 53.404 32.1975 53.404ZM32.1975 46.0664C33.9985 46.0664 35.4586 44.6064 35.4586 42.8053C35.4586 41.0042 33.9985 39.5441 32.1975 39.5441C30.3964 39.5441 28.9363 41.0042 28.9363 42.8053C28.9363 44.6064 30.3964 46.0664 32.1975 46.0664Z" fill="#03A9F4"/>
</g>
<defs>
<clipPath id="clip0_3750_2415">
<rect width="64" height="64" fill="white"/>
</clipPath>
</defs>
</svg>
