<svg width="17" height="17" viewBox="0 0 17 17" fill="none" xmlns="http://www.w3.org/2000/svg">
<path d="M8.22856 0.906365C7.67761 0.944891 7.26223 1.42275 7.30075 1.97369L7.71929 7.95907L1.73391 8.37761C1.18296 8.41613 0.767573 8.89399 0.806099 9.44493C0.844624 9.99587 1.32247 10.4113 1.87342 10.3727L7.8588 9.9542L8.27734 15.9396C8.31587 16.4905 8.79372 16.9059 9.34466 16.8674C9.89561 16.8289 10.311 16.351 10.2725 15.8001L9.85393 9.81468L15.8393 9.39615C16.3903 9.35762 16.8056 8.87976 16.7671 8.32883C16.7286 7.77789 16.2507 7.36249 15.6998 7.40102L9.71442 7.81956L9.29588 1.83417C9.25735 1.28323 8.77951 0.867839 8.22856 0.906365Z" fill="white" fill-opacity="0.9"/>
</svg>
