<svg width="17" height="17" viewBox="0 0 17 17" fill="none" xmlns="http://www.w3.org/2000/svg">
<path d="M7.7559 0.227829C7.20496 0.266355 6.78957 0.744211 6.8281 1.29515L7.24663 7.28053L1.26125 7.69907C0.710303 7.7376 0.294917 8.21545 0.333442 8.76639C0.371968 9.31733 0.849816 9.73273 1.40076 9.6942L7.38615 9.27566L7.80469 15.261C7.84321 15.812 8.32106 16.2274 8.87201 16.1889C9.42295 16.1503 9.83834 15.6725 9.79981 15.1215L9.38128 9.13615L15.3667 8.71761C15.9176 8.67908 16.333 8.20123 16.2945 7.65029C16.2559 7.09935 15.7781 6.68396 15.2271 6.72248L9.24176 7.14102L8.82322 1.15564C8.7847 0.604698 8.30685 0.189303 7.7559 0.227829Z" fill="white" fill-opacity="0.9"/>
</svg>
