<svg width="64" height="64" viewBox="0 0 64 64" fill="none" xmlns="http://www.w3.org/2000/svg">
<path d="M54.1787 12.0438C50.0996 10.1721 45.7253 8.79311 41.1517 8.00331C41.0684 7.98807 40.9852 8.02616 40.9423 8.10235C40.3798 9.10292 39.7566 10.4083 39.3202 11.4342C34.4011 10.6978 29.5072 10.6978 24.6889 11.4342C24.2524 10.3854 23.6066 9.10292 23.0415 8.10235C22.9986 8.0287 22.9154 7.99061 22.8321 8.00331C18.2611 8.79059 13.8868 10.1696 9.80516 12.0438C9.76982 12.059 9.73954 12.0844 9.71944 12.1174C1.42238 24.513 -0.850534 36.604 0.26448 48.545C0.269525 48.6035 0.30232 48.6593 0.347728 48.6949C5.82189 52.715 11.1246 55.1555 16.3287 56.7732C16.412 56.7986 16.5003 56.7681 16.5533 56.6995C17.7843 55.0184 18.8817 53.2458 19.8226 51.3817C19.8781 51.2725 19.8251 51.143 19.7116 51.0998C17.971 50.4395 16.3136 49.6345 14.7193 48.7203C14.5932 48.6466 14.5831 48.4663 14.6991 48.3799C15.0346 48.1285 15.3702 47.8669 15.6905 47.6028C15.7485 47.5546 15.8293 47.5444 15.8974 47.5749C26.3714 52.3569 37.7108 52.3569 48.0612 47.5749C48.1294 47.5419 48.2101 47.5521 48.2706 47.6003C48.5911 47.8644 48.9266 48.1285 49.2646 48.3799C49.3806 48.4663 49.373 48.6466 49.2469 48.7203C47.6526 49.6522 45.9952 50.4395 44.252 51.0973C44.1385 51.1405 44.0881 51.2725 44.1436 51.3817C45.1047 53.2432 46.2021 55.0158 47.4104 56.697C47.4609 56.7681 47.5516 56.7986 47.6349 56.7732C52.8644 55.1555 58.167 52.715 63.6411 48.6949C63.6891 48.6593 63.7194 48.606 63.7244 48.5476C65.0589 34.7424 61.4893 22.7506 54.2619 12.1199C54.2442 12.0844 54.214 12.059 54.1787 12.0438ZM21.3867 41.2742C18.2333 41.2742 15.635 38.3791 15.635 34.8237C15.635 31.2683 18.1829 28.3732 21.3867 28.3732C24.6157 28.3732 27.1888 31.2937 27.1383 34.8237C27.1383 38.3791 24.5904 41.2742 21.3867 41.2742ZM42.6527 41.2742C39.4994 41.2742 36.901 38.3791 36.901 34.8237C36.901 31.2683 39.4489 28.3732 42.6527 28.3732C45.8817 28.3732 48.4548 31.2937 48.4044 34.8237C48.4044 38.3791 45.8817 41.2742 42.6527 41.2742Z" fill="#5865F2"/>
</svg>
