<svg width="30" height="30" viewBox="0 0 30 30" fill="none" xmlns="http://www.w3.org/2000/svg">
<path d="M8.54 22.5201C7.93 22.5201 7.36 22.31 6.95 21.92C6.43 21.43 6.18 20.69 6.27 19.89L6.64 16.65C6.71 16.04 7.08 15.23 7.51 14.79L15.72 6.10005C17.77 3.93005 19.91 3.87005 22.08 5.92005C24.25 7.97005 24.31 10.11 22.26 12.28L14.05 20.97C13.63 21.42 12.85 21.84 12.24 21.9401L9.02 22.49C8.85 22.5 8.7 22.5201 8.54 22.5201ZM18.93 5.91005C18.16 5.91005 17.49 6.39005 16.81 7.11005L8.6 15.8101C8.4 16.0201 8.17 16.5201 8.13 16.8101L7.76 20.05C7.72 20.38 7.8 20.65 7.98 20.82C8.16 20.99 8.43 21.05 8.76 21L11.98 20.4501C12.27 20.4001 12.75 20.14 12.95 19.93L21.16 11.24C22.4 9.92005 22.85 8.70005 21.04 7.00005C20.24 6.23005 19.55 5.91005 18.93 5.91005Z" fill="#7E92A2"/>
<path d="M20.34 13.95C20.32 13.95 20.29 13.95 20.27 13.95C17.15 13.64 14.64 11.27 14.16 8.17005C14.1 7.76005 14.38 7.38005 14.79 7.31005C15.2 7.25005 15.58 7.53005 15.65 7.94005C16.03 10.36 17.99 12.22 20.43 12.46C20.84 12.5 21.14 12.87 21.1 13.28C21.05 13.66 20.72 13.95 20.34 13.95Z" fill="#7E92A2"/>
<path d="M24 25.75H6C5.59 25.75 5.25 25.41 5.25 25C5.25 24.59 5.59 24.25 6 24.25H24C24.41 24.25 24.75 24.59 24.75 25C24.75 25.41 24.41 25.75 24 25.75Z" fill="#7E92A2"/>
</svg>
