<svg width="20" height="20" viewBox="0 0 20 20" fill="none" xmlns="http://www.w3.org/2000/svg">
<path d="M6.45864 3.99835C6.39642 4.06057 6.3492 4.13557 6.30976 4.21779L6.30532 4.21335L0.0744036 18.2496L0.0805145 18.2557C-0.0350373 18.4796 0.15829 18.9351 0.554388 19.3317C0.950487 19.7278 1.40603 19.9212 1.62991 19.8056L1.63546 19.8112L15.6717 13.5797L15.6672 13.5747C15.7489 13.5358 15.8239 13.4886 15.8867 13.4253C16.7544 12.5575 15.3472 9.74372 12.7446 7.14047C10.1407 4.53722 7.32695 3.1306 6.45864 3.99835Z" fill="#DD2E44"/>
<path d="M7.22195 6.50494L0.231065 17.8968L0.0744036 18.2496L0.0805145 18.2557C-0.0350373 18.4796 0.15829 18.9351 0.554388 19.3318C0.683273 19.4606 0.817158 19.5584 0.948265 19.6412L9.4441 9.28263L7.22195 6.50494Z" fill="#EA596E"/>
<path d="M12.7839 7.09712C15.3783 9.69259 16.8188 12.4592 16 13.2769C15.1816 14.0958 12.4151 12.6558 9.81904 10.0615C7.22413 7.466 5.78417 4.69831 6.60248 3.88C7.42134 3.0617 10.1879 4.50165 12.7839 7.09712Z" fill="#A0041E"/>
<path d="M10.3273 7.3988C10.2167 7.48824 10.0723 7.53491 9.91953 7.51824C9.43733 7.46602 9.03178 7.29825 8.7479 7.03326C8.44736 6.75271 8.29903 6.37606 8.33958 5.99885C8.41069 5.33664 9.07512 4.72889 10.2079 4.8511C10.6484 4.89832 10.8451 4.75666 10.8517 4.68889C10.8595 4.62167 10.6978 4.44112 10.2573 4.39334C9.77509 4.34112 9.36955 4.17335 9.08512 3.90836C8.78457 3.62781 8.63569 3.25115 8.6768 2.87394C8.74902 2.21174 9.41288 1.60399 10.5445 1.72676C10.8656 1.7612 11.0351 1.69509 11.1067 1.65232C11.1639 1.61732 11.1867 1.58399 11.1889 1.56454C11.1956 1.49732 11.0362 1.31677 10.5945 1.269C10.2895 1.23566 10.0684 0.962339 10.1023 0.656793C10.1351 0.351803 10.4079 0.131254 10.714 0.164587C11.8456 0.286249 12.3656 1.02123 12.2939 1.68398C12.2217 2.34729 11.5578 2.95394 10.4251 2.83228C10.104 2.79728 9.9362 2.86394 9.86398 2.90672C9.80676 2.94116 9.78343 2.97505 9.78121 2.99394C9.77398 3.06172 9.93453 3.24171 10.3762 3.28949C11.5078 3.41171 12.0278 4.14613 11.9561 4.80888C11.8845 5.47108 11.2206 6.07884 10.0884 5.95607C9.76732 5.92163 9.59843 5.98829 9.52621 6.03051C9.46844 6.06607 9.44622 6.0994 9.44399 6.11829C9.43677 6.18551 9.59732 6.36606 10.0384 6.41383C10.3429 6.44716 10.5645 6.72104 10.5306 7.02603C10.5151 7.17825 10.4379 7.30991 10.3273 7.3988Z" fill="#AA8DD8"/>
<path d="M17.0332 12.5364C18.1293 12.227 18.8854 12.7159 19.0654 13.3575C19.2454 13.9986 18.8554 14.8102 17.7599 15.1186C17.3321 15.2385 17.2038 15.443 17.221 15.508C17.2399 15.5735 17.4571 15.6813 17.8838 15.5608C18.9793 15.2524 19.7354 15.7413 19.9154 16.3824C20.0965 17.024 19.7054 17.8346 18.6093 18.1435C18.1821 18.2635 18.0532 18.4684 18.0721 18.5334C18.0904 18.5984 18.3071 18.7062 18.7343 18.5862C19.0287 18.5034 19.3365 18.6751 19.4193 18.9701C19.5015 19.2656 19.3298 19.5723 19.0343 19.6556C17.9393 19.964 17.1827 19.4762 17.0016 18.834C16.8216 18.1929 17.2121 17.3824 18.3088 17.0735C18.7365 16.9529 18.8648 16.7491 18.846 16.6835C18.8282 16.6185 18.6115 16.5102 18.1849 16.6302C17.0882 16.9391 16.3327 16.4513 16.1522 15.8085C15.9716 15.1674 16.3622 14.3569 17.4582 14.0475C17.8849 13.928 18.0132 13.7225 17.9954 13.658C17.9765 13.5925 17.7604 13.4847 17.3332 13.6047C17.0377 13.688 16.7316 13.5158 16.6483 13.2208C16.5655 12.9264 16.7377 12.6197 17.0332 12.5364Z" fill="#77B255"/>
<path d="M12.7777 11.0381C12.6144 11.0381 12.4532 10.9665 12.3433 10.8298C12.1516 10.5898 12.191 10.2404 12.4299 10.0487C12.551 9.95151 15.4398 7.68269 19.5225 8.26656C19.8263 8.30989 20.0374 8.591 19.9941 8.89488C19.9508 9.1982 19.6719 9.41153 19.3652 9.36597C15.7581 8.85377 13.1504 10.8959 13.1249 10.9165C13.0216 10.9987 12.8993 11.0381 12.7777 11.0381Z" fill="#AA8DD8"/>
<path d="M3.19653 8.72711C3.14375 8.72711 3.08987 8.71934 3.03654 8.70378C2.74266 8.61545 2.57599 8.30602 2.66432 8.01214C3.29375 5.91609 3.86429 2.5712 3.1632 1.699C3.08487 1.60012 2.96654 1.5029 2.69543 1.52345C2.17434 1.56345 2.22378 2.66286 2.22434 2.67397C2.24767 2.98007 2.01768 3.24673 1.71213 3.26951C1.40159 3.2884 1.13937 3.06285 1.1166 2.75675C1.05938 1.99066 1.2977 0.515153 2.6121 0.415712C3.19875 0.371269 3.68596 0.575151 4.02984 1.00292C5.34702 2.64231 4.00984 7.39493 3.72873 8.33157C3.65652 8.57212 3.43541 8.72711 3.19653 8.72711Z" fill="#77B255"/>
<path d="M14.1663 5.94945C14.6265 5.94945 14.9996 5.57637 14.9996 5.11614C14.9996 4.65592 14.6265 4.28284 14.1663 4.28284C13.7061 4.28284 13.333 4.65592 13.333 5.11614C13.333 5.57637 13.7061 5.94945 14.1663 5.94945Z" fill="#5C913B"/>
<path d="M1.11108 10.9492C1.72471 10.9492 2.22215 10.4518 2.22215 9.83813C2.22215 9.2245 1.72471 8.72705 1.11108 8.72705C0.497445 8.72705 0 9.2245 0 9.83813C0 10.4518 0.497445 10.9492 1.11108 10.9492Z" fill="#9266CC"/>
<path d="M18.055 11.5048C18.5152 11.5048 18.8883 11.1317 18.8883 10.6715C18.8883 10.2113 18.5152 9.8382 18.055 9.8382C17.5948 9.8382 17.2217 10.2113 17.2217 10.6715C17.2217 11.1317 17.5948 11.5048 18.055 11.5048Z" fill="#5C913B"/>
<path d="M13.055 18.1713C13.5152 18.1713 13.8883 17.7982 13.8883 17.3379C13.8883 16.8777 13.5152 16.5046 13.055 16.5046C12.5948 16.5046 12.2217 16.8777 12.2217 17.3379C12.2217 17.7982 12.5948 18.1713 13.055 18.1713Z" fill="#5C913B"/>
<path d="M15.5549 3.17174C16.1686 3.17174 16.666 2.67429 16.666 2.06066C16.666 1.44703 16.1686 0.949585 15.5549 0.949585C14.9413 0.949585 14.4438 1.44703 14.4438 2.06066C14.4438 2.67429 14.9413 3.17174 15.5549 3.17174Z" fill="#FFCC4D"/>
<path d="M18.055 5.39391C18.5152 5.39391 18.8883 5.02082 18.8883 4.5606C18.8883 4.10038 18.5152 3.72729 18.055 3.72729C17.5948 3.72729 17.2217 4.10038 17.2217 4.5606C17.2217 5.02082 17.5948 5.39391 18.055 5.39391Z" fill="#FFCC4D"/>
<path d="M16.3885 7.61602C16.8487 7.61602 17.2218 7.24293 17.2218 6.78271C17.2218 6.32249 16.8487 5.9494 16.3885 5.9494C15.9283 5.9494 15.5552 6.32249 15.5552 6.78271C15.5552 7.24293 15.9283 7.61602 16.3885 7.61602Z" fill="#FFCC4D"/>
<path d="M4.16631 13.7269C4.62654 13.7269 4.99962 13.3538 4.99962 12.8936C4.99962 12.4334 4.62654 12.0603 4.16631 12.0603C3.70609 12.0603 3.33301 12.4334 3.33301 12.8936C3.33301 13.3538 3.70609 13.7269 4.16631 13.7269Z" fill="#FFCC4D"/>
</svg>
