<svg width="80" height="72" viewBox="0 0 80 72" fill="none" xmlns="http://www.w3.org/2000/svg">
<path d="M76.341 17.6782C75.4687 14.3935 72.8984 11.8065 69.6349 10.9286C63.7196 9.33334 40.0001 9.33334 40.0001 9.33334C40.0001 9.33334 16.2806 9.33334 10.3652 10.9286C7.10174 11.8067 4.53146 14.3935 3.6591 17.6782C2.0741 23.632 2.0741 36.0539 2.0741 36.0539C2.0741 36.0539 2.0741 48.4758 3.6591 54.4296C4.53146 57.7143 7.10174 60.1935 10.3652 61.0714C16.2806 62.6667 40.0001 62.6667 40.0001 62.6667C40.0001 62.6667 63.7195 62.6667 69.6349 61.0714C72.8984 60.1935 75.4687 57.7143 76.341 54.4296C77.926 48.4758 77.926 36.0539 77.926 36.0539C77.926 36.0539 77.926 23.632 76.341 17.6782ZM32.2424 47.3321V24.7757L52.0673 36.0542L32.2424 47.3321Z" fill="#FF0000"/>
</svg>
