<svg width="64" height="64" viewBox="0 0 64 64" fill="none" xmlns="http://www.w3.org/2000/svg">
<path d="M21.3501 63.9999C27.2405 63.9999 32.021 59.2213 32.021 53.3333V42.6666H21.3501C15.4598 42.6666 10.6792 47.4453 10.6792 53.3333C10.6792 59.2213 15.4598 63.9999 21.3501 63.9999Z" fill="#0ACF83"/>
<path d="M10.6792 32C10.6792 26.112 15.4598 21.3334 21.3501 21.3334H32.021V42.6667H21.3501C15.4598 42.6667 10.6792 37.888 10.6792 32Z" fill="#A259FF"/>
<path d="M10.6797 10.6667C10.6797 4.77867 15.4603 0 21.3506 0H32.0215V21.3333H21.3506C15.4603 21.3333 10.6797 16.5547 10.6797 10.6667Z" fill="#F24E1E"/>
<path d="M32.021 0H42.6919C48.5823 0 53.3629 4.77866 53.3629 10.6667C53.3629 16.5547 48.5823 21.3333 42.6919 21.3333H32.021V0Z" fill="#FF7262"/>
<path d="M53.3629 32C53.3629 37.888 48.5823 42.6667 42.6919 42.6667C36.8016 42.6667 32.021 37.888 32.021 32C32.021 26.112 36.8016 21.3334 42.6919 21.3334C48.5823 21.3334 53.3629 26.112 53.3629 32Z" fill="#1ABCFE"/>
</svg>
