<svg width="20" height="20" viewBox="0 0 20 20" fill="none" xmlns="http://www.w3.org/2000/svg">
<path d="M12.0248 15.6834C11.8665 15.6834 11.7082 15.6251 11.5832 15.5001C11.3415 15.2584 11.3415 14.8584 11.5832 14.6168L16.1998 10.0001L11.5832 5.38343C11.3415 5.14176 11.3415 4.74176 11.5832 4.5001C11.8248 4.25843 12.2248 4.25843 12.4665 4.5001L17.5248 9.55843C17.7665 9.8001 17.7665 10.2001 17.5248 10.4418L12.4665 15.5001C12.3415 15.6251 12.1832 15.6834 12.0248 15.6834Z" fill="#292D32"/>
<path d="M16.9415 10.6251H2.9165C2.57484 10.6251 2.2915 10.3418 2.2915 10.0001C2.2915 9.65843 2.57484 9.3751 2.9165 9.3751H16.9415C17.2832 9.3751 17.5665 9.65843 17.5665 10.0001C17.5665 10.3418 17.2832 10.6251 16.9415 10.6251Z" fill="#292D32"/>
</svg>
