<svg width="64" height="64" viewBox="0 0 64 64" fill="none" xmlns="http://www.w3.org/2000/svg">
<path d="M32.0001 3.55554C26.3743 3.55554 20.8749 5.22378 16.1972 8.34929C11.5196 11.4748 7.87377 15.9172 5.72088 21.1148C3.56799 26.3123 3.00469 32.0315 4.10223 37.5492C5.19976 43.0669 7.90883 48.1352 11.8869 52.1132C15.8649 56.0913 20.9332 58.8003 26.4509 59.8979C31.9686 60.9954 37.6878 60.4321 42.8853 58.2792C48.0829 56.1263 52.5253 52.4805 55.6508 47.8029C58.7763 43.1252 60.4446 37.6258 60.4446 32C60.4446 24.456 57.4477 17.2211 52.1134 11.8867C46.779 6.55236 39.5441 3.55554 32.0001 3.55554ZM31.609 49.5111C31.0289 49.5111 30.4617 49.3391 29.9793 49.0167C29.497 48.6944 29.121 48.2363 28.899 47.7003C28.6769 47.1643 28.6189 46.5745 28.732 46.0055C28.8452 45.4365 29.1246 44.9138 29.5348 44.5036C29.9451 44.0933 30.4677 43.814 31.0367 43.7008C31.6058 43.5876 32.1956 43.6457 32.7315 43.8677C33.2675 44.0897 33.7257 44.4657 34.048 44.9481C34.3703 45.4305 34.5423 45.9976 34.5423 46.5778C34.5423 47.3557 34.2333 48.1018 33.6832 48.6519C33.1331 49.202 32.387 49.5111 31.609 49.5111ZM34.0446 35.1822V38.24C34.0408 38.8619 33.7994 39.4588 33.3697 39.9083C32.9399 40.3579 32.3545 40.626 31.7335 40.6578H31.5379C31.2236 40.6696 30.91 40.6191 30.6153 40.5092C30.3205 40.3992 30.0505 40.232 29.8208 40.0171C29.591 39.8022 29.4061 39.544 29.2767 39.2573C29.1473 38.9706 29.076 38.6611 29.0668 38.3466V33.44C29.0375 33.155 29.0664 32.867 29.1517 32.5935C29.2371 32.3199 29.3771 32.0666 29.5633 31.8489C29.7495 31.6311 29.9779 31.4534 30.2349 31.3266C30.4918 31.1998 30.7718 31.1264 31.0579 31.1111C33.849 30.8978 38.489 29.8667 38.489 25.3333C38.489 22.08 35.9823 19.8755 32.3912 19.8755C31.0299 19.898 29.6895 20.2147 28.4621 20.8039C27.2346 21.3931 26.1492 22.2408 25.2801 23.2889C24.9514 23.6381 24.5263 23.8817 24.0588 23.9887C23.5913 24.0957 23.1026 24.0612 22.6547 23.8897C22.2069 23.7182 21.8201 23.4174 21.5437 23.0255C21.2673 22.6336 21.1137 22.1683 21.1023 21.6889C21.1128 21.0187 21.3876 20.3797 21.8668 19.9111C23.187 18.3826 24.8264 17.1623 26.6693 16.336C28.5123 15.5098 30.514 15.0977 32.5335 15.1289C39.1112 15.1289 43.6979 19.2178 43.6979 25.0844C43.6979 30.5067 40.1957 34.1333 34.0446 35.1822Z" fill="#E91E63"/>
</svg>
