<svg width="20" height="20" viewBox="0 0 20 20" fill="none" xmlns="http://www.w3.org/2000/svg">
<path d="M16.4748 9.37484H13.1082C11.4332 9.37484 10.6248 8.63317 10.6248 7.09984V3.3165C10.6248 1.78317 11.4415 1.0415 13.1082 1.0415H16.4748C18.1498 1.0415 18.9582 1.78317 18.9582 3.3165V7.0915C18.9582 8.63317 18.1415 9.37484 16.4748 9.37484ZM13.1082 2.2915C11.9915 2.2915 11.8748 2.60817 11.8748 3.3165V7.0915C11.8748 7.80817 11.9915 8.1165 13.1082 8.1165H16.4748C17.5915 8.1165 17.7082 7.79984 17.7082 7.0915V3.3165C17.7082 2.59984 17.5915 2.2915 16.4748 2.2915H13.1082Z" fill="#7E92A2"/>
<path d="M16.4748 18.9582H13.1082C11.4332 18.9582 10.6248 18.1415 10.6248 16.4748V13.1082C10.6248 11.4332 11.4415 10.6248 13.1082 10.6248H16.4748C18.1498 10.6248 18.9582 11.4415 18.9582 13.1082V16.4748C18.9582 18.1415 18.1415 18.9582 16.4748 18.9582ZM13.1082 11.8748C12.1248 11.8748 11.8748 12.1248 11.8748 13.1082V16.4748C11.8748 17.4582 12.1248 17.7082 13.1082 17.7082H16.4748C17.4582 17.7082 17.7082 17.4582 17.7082 16.4748V13.1082C17.7082 12.1248 17.4582 11.8748 16.4748 11.8748H13.1082Z" fill="#7E92A2"/>
<path d="M6.8915 9.37484H3.52484C1.84984 9.37484 1.0415 8.63317 1.0415 7.09984V3.3165C1.0415 1.78317 1.85817 1.0415 3.52484 1.0415H6.8915C8.5665 1.0415 9.37484 1.78317 9.37484 3.3165V7.0915C9.37484 8.63317 8.55817 9.37484 6.8915 9.37484ZM3.52484 2.2915C2.40817 2.2915 2.2915 2.60817 2.2915 3.3165V7.0915C2.2915 7.80817 2.40817 8.1165 3.52484 8.1165H6.8915C8.00817 8.1165 8.12484 7.79984 8.12484 7.0915V3.3165C8.12484 2.59984 8.00817 2.2915 6.8915 2.2915H3.52484Z" fill="#7E92A2"/>
<path d="M6.8915 18.9582H3.52484C1.84984 18.9582 1.0415 18.1415 1.0415 16.4748V13.1082C1.0415 11.4332 1.85817 10.6248 3.52484 10.6248H6.8915C8.5665 10.6248 9.37484 11.4415 9.37484 13.1082V16.4748C9.37484 18.1415 8.55817 18.9582 6.8915 18.9582ZM3.52484 11.8748C2.5415 11.8748 2.2915 12.1248 2.2915 13.1082V16.4748C2.2915 17.4582 2.5415 17.7082 3.52484 17.7082H6.8915C7.87484 17.7082 8.12484 17.4582 8.12484 16.4748V13.1082C8.12484 12.1248 7.87484 11.8748 6.8915 11.8748H3.52484Z" fill="#7E92A2"/>
</svg>
