<svg width="20" height="20" viewBox="0 0 20 20" fill="none" xmlns="http://www.w3.org/2000/svg">
<path d="M13.3334 18.9583H6.66677C2.81677 18.9583 2.10011 17.1667 1.91677 15.425L1.29177 8.74999C1.20011 7.87499 1.17511 6.58332 2.04177 5.61666C2.79177 4.78332 4.03344 4.38332 5.83344 4.38332H14.1668C15.9751 4.38332 17.2168 4.79166 17.9584 5.61666C18.8251 6.58332 18.8001 7.87499 18.7084 8.75832L18.0834 15.4167C17.9001 17.1667 17.1834 18.9583 13.3334 18.9583ZM5.83344 5.62499C4.42511 5.62499 3.45844 5.89999 2.96677 6.44999C2.55844 6.89999 2.42511 7.59166 2.53344 8.62499L3.15844 15.3C3.30011 16.6167 3.65844 17.7083 6.66677 17.7083H13.3334C16.3334 17.7083 16.7001 16.6167 16.8418 15.2917L17.4668 8.63332C17.5751 7.59166 17.4418 6.89999 17.0334 6.44999C16.5418 5.89999 15.5751 5.62499 14.1668 5.62499H5.83344Z" fill="#7E92A2"/>
<path d="M13.3334 5.62499C12.9918 5.62499 12.7084 5.34166 12.7084 4.99999V4.33332C12.7084 2.84999 12.7084 2.29166 10.6668 2.29166H9.33344C7.29177 2.29166 7.29177 2.84999 7.29177 4.33332V4.99999C7.29177 5.34166 7.00844 5.62499 6.66677 5.62499C6.32511 5.62499 6.04177 5.34166 6.04177 4.99999V4.33332C6.04177 2.86666 6.04177 1.04166 9.33344 1.04166H10.6668C13.9584 1.04166 13.9584 2.86666 13.9584 4.33332V4.99999C13.9584 5.34166 13.6751 5.62499 13.3334 5.62499Z" fill="#7E92A2"/>
<path d="M10.0001 13.9583C7.70844 13.9583 7.70844 12.5417 7.70844 11.6917V10.8333C7.70844 9.65832 7.99177 9.37499 9.16677 9.37499H10.8334C12.0084 9.37499 12.2918 9.65832 12.2918 10.8333V11.6667C12.2918 12.5333 12.2918 13.9583 10.0001 13.9583ZM8.95844 10.625C8.95844 10.6917 8.95844 10.7667 8.95844 10.8333V11.6917C8.95844 12.55 8.95844 12.7083 10.0001 12.7083C11.0418 12.7083 11.0418 12.575 11.0418 11.6833V10.8333C11.0418 10.7667 11.0418 10.6917 11.0418 10.625C10.9751 10.625 10.9001 10.625 10.8334 10.625H9.16677C9.10011 10.625 9.02511 10.625 8.95844 10.625Z" fill="#7E92A2"/>
<path d="M11.6668 12.3083C11.3584 12.3083 11.0834 12.075 11.0501 11.7583C11.0084 11.4167 11.2501 11.1 11.5918 11.0583C13.7918 10.7833 15.9001 9.94999 17.6751 8.65832C17.9501 8.44999 18.3418 8.51666 18.5501 8.79999C18.7501 9.07499 18.6918 9.46666 18.4084 9.67499C16.4584 11.0917 14.1584 12 11.7418 12.3083C11.7168 12.3083 11.6918 12.3083 11.6668 12.3083Z" fill="#7E92A2"/>
<path d="M8.33344 12.3167C8.30844 12.3167 8.28344 12.3167 8.25844 12.3167C5.97511 12.0583 3.75011 11.225 1.82511 9.90832C1.54177 9.71666 1.46677 9.32499 1.65844 9.04166C1.85011 8.75832 2.24177 8.68332 2.52511 8.87499C4.28344 10.075 6.30844 10.8333 8.39177 11.075C8.73344 11.1167 8.98344 11.425 8.94177 11.7667C8.91677 12.0833 8.65011 12.3167 8.33344 12.3167Z" fill="#7E92A2"/>
</svg>
