<svg width="80" height="80" viewBox="0 0 80 80" fill="none" xmlns="http://www.w3.org/2000/svg">
<rect width="80" height="80" rx="40" fill="url(#paint0_linear_46_702)"/>
<path d="M52.12 33.3068C50.9867 32.0534 49.0933 31.4268 46.3467 31.4268H46.0267V31.3734C46.0267 29.1334 46.0267 26.3601 41.0133 26.3601H38.9867C33.9733 26.3601 33.9733 29.1468 33.9733 31.3734V31.4401H33.6533C30.8933 31.4401 29.0133 32.0668 27.88 33.3201C26.56 34.7868 26.6 36.7601 26.7333 38.1068L26.7467 38.2001L26.8499 39.2845C26.869 39.4842 26.9765 39.6646 27.1444 39.7744C27.4641 39.9836 27.9992 40.3286 28.32 40.5068C28.5067 40.6268 28.7067 40.7334 28.9067 40.8401C31.1867 42.0934 33.6933 42.9334 36.24 43.3468C36.36 44.6001 36.9067 46.0668 39.8267 46.0668C42.7467 46.0668 43.32 44.6134 43.4133 43.3201C46.1333 42.8801 48.76 41.9334 51.1333 40.5468C51.2133 40.5068 51.2667 40.4668 51.3333 40.4268C51.8623 40.1278 52.4111 39.7594 52.9113 39.3986C53.062 39.2899 53.1583 39.1218 53.1789 38.9371L53.2 38.7468L53.2667 38.1201C53.28 38.0401 53.28 37.9734 53.2933 37.8801C53.4 36.5334 53.3733 34.6934 52.12 33.3068ZM41.4533 42.4401C41.4533 43.8534 41.4533 44.0668 39.8133 44.0668C38.1733 44.0668 38.1733 43.8134 38.1733 42.4534V40.7734H41.4533V42.4401ZM35.88 31.3734C35.88 29.1068 35.88 28.2668 38.9867 28.2668H41.0133C44.12 28.2668 44.12 29.1201 44.12 31.3734V31.4401H35.88V31.3734Z" fill="#FE8084"/>
<path d="M51.8313 42.3123C52.3028 42.088 52.8458 42.4617 52.7986 42.9817L52.32 48.2534C52.04 50.9201 50.9467 53.6401 45.08 53.6401H34.92C29.0533 53.6401 27.96 50.9201 27.68 48.2668L27.2257 43.2697C27.179 42.7557 27.7096 42.3824 28.1798 42.5952C29.699 43.2825 32.5032 44.502 34.2354 44.9557C34.4545 45.013 34.6317 45.1698 34.7276 45.375C35.5369 47.1058 37.2922 48.0268 39.8267 48.0268C42.3362 48.0268 44.1136 47.0703 44.9255 45.3353C45.0216 45.13 45.199 44.9732 45.4182 44.9155C47.2576 44.4315 50.2424 43.0684 51.8313 42.3123Z" fill="#FE8084"/>
<defs>
<linearGradient id="paint0_linear_46_702" x1="40" y1="0" x2="40" y2="80" gradientUnits="userSpaceOnUse">
<stop stop-color="#FE8084" stop-opacity="0.5"/>
<stop offset="1" stop-color="white" stop-opacity="0"/>
</linearGradient>
</defs>
</svg>
