<svg width="153" height="64" viewBox="0 0 153 64" fill="none" xmlns="http://www.w3.org/2000/svg">
<path fill-rule="evenodd" clip-rule="evenodd" d="M128.618 17.0048V32.5256C128.618 36.9652 132.217 40.5643 136.657 40.5643C141.097 40.5643 144.696 36.9652 144.696 32.5256V17.0048H152.734V32.5256C152.734 32.6911 152.732 32.856 152.727 33.0203H152.734V48.5411C152.734 55.8849 147.81 62.0786 141.084 64.0011L138.485 56.371C142.044 55.5435 144.696 52.3519 144.696 48.5411V46.4521C142.331 47.82 139.586 48.6029 136.657 48.6029C133.069 48.6029 129.755 47.4273 127.08 45.4402L120.58 47.9227H63.6908L57.1908 45.4402C54.5157 47.4273 51.2019 48.6029 47.6135 48.6029C39.8034 48.6029 33.2939 43.0338 31.8395 35.6491C30.3629 43.0031 23.8671 48.5431 16.0773 48.5431C7.23923 48.5431 0.0667888 41.4116 0.000463768 32.5892L0 3.71268L8.657 0V18.1996C10.8769 17.0426 13.4007 16.3885 16.0773 16.3885C23.4195 16.3885 29.6123 21.3103 31.5362 28.0348V17.0048H39.5749V32.5256C39.5749 36.9652 43.1739 40.5643 47.6135 40.5643C52.0531 40.5643 55.6522 36.9652 55.6522 32.5256V17.0048H128.618ZM120.58 41.7391V23.1884L103.142 41.7391H120.58ZM92.1353 41.7391L109.573 23.1884H92.1353L74.6976 41.7391H92.1353ZM81.1286 23.1884H63.6908V41.7391L81.1286 23.1884ZM16.0773 40.5045C11.6377 40.5045 8.03865 36.9055 8.03865 32.4658C8.03865 28.0262 11.6377 24.4272 16.0773 24.4272C20.5169 24.4272 24.116 28.0262 24.116 32.4658C24.116 36.9055 20.5169 40.5045 16.0773 40.5045ZM16.0773 34.9393C17.4433 34.9393 18.5507 33.8319 18.5507 32.4658C18.5507 31.0998 17.4433 29.9924 16.0773 29.9924C14.7113 29.9924 13.6039 31.0998 13.6039 32.4658C13.6039 33.8319 14.7113 34.9393 16.0773 34.9393Z" fill="white"/>
</svg>
