<svg width="90" height="90" viewBox="0 0 90 90" fill="none" xmlns="http://www.w3.org/2000/svg">
<g clip-path="url(#clip0_502_4999)">
<rect width="90" height="90" fill="#F6FAFD"/>
<rect x="22" y="22" width="46" height="46" rx="4" fill="#092C4C"/>
<path d="M46.47 40.4101L48.93 39.2001C49.23 39.0501 49.31 38.6601 49.08 38.4201C48.19 37.4401 47.29 36.6201 46.57 36.0001C46.24 35.7201 45.75 35.9501 45.75 36.3801V39.9601C45.75 40.3301 46.14 40.5701 46.47 40.4101Z" fill="white"/>
<path d="M45.75 52.7401V54.3901C45.75 54.6901 46.02 54.9401 46.32 54.8901C49.05 54.4401 51.33 52.6101 52.41 50.1501C52.6 49.7301 52.14 49.3101 51.72 49.5101L46.03 52.3001C45.86 52.3801 45.75 52.5501 45.75 52.7401Z" fill="white"/>
<path d="M44.25 36.3601C44.25 35.9301 43.76 35.7001 43.43 35.9701C41.07 37.9501 36.88 42.1201 36.9 46.9001C36.9 50.9201 39.84 54.2501 43.68 54.8901C43.98 54.9401 44.25 54.6901 44.25 54.3901V36.3601Z" fill="white"/>
<path d="M46.44 45.4701L51.73 43.2501C52 43.1301 52.13 42.8201 52 42.5601C51.63 41.8301 51.2 41.1201 50.73 40.4601C50.59 40.2601 50.33 40.2001 50.11 40.3001L46.02 42.2901C45.85 42.3701 45.74 42.5501 45.74 42.7401V45.0101C45.75 45.3601 46.11 45.6101 46.44 45.4701Z" fill="white"/>
<path d="M52.83 47.3101C52.99 47.2301 53.09 47.0801 53.09 46.9101C53.09 46.2701 53.01 45.6401 52.87 45.0201C52.8 44.7201 52.47 44.5601 52.19 44.6801L46.05 47.3001C45.87 47.3801 45.75 47.5601 45.75 47.7601V49.9601C45.75 50.3301 46.14 50.5701 46.47 50.4101L52.37 47.5401L52.83 47.3101Z" fill="white"/>
<rect width="1" height="90" transform="translate(89)" fill="#EAEEF4"/>
<rect width="90" height="1" transform="translate(0 89)" fill="#EAEEF4"/>
</g>
<defs>
<clipPath id="clip0_502_4999">
<rect width="90" height="90" fill="white"/>
</clipPath>
</defs>
</svg>
