<svg width="20" height="14" viewBox="0 0 20 14" fill="none" xmlns="http://www.w3.org/2000/svg">
<path d="M0 1.80688V13.4432H2.38636V5.84098H2.48295L5.49432 13.3864H7.11932L10.1307 5.86938H10.2273V13.4432H12.6136V1.80688H9.57955L6.375 9.62507H6.23864L3.03409 1.80688H0Z" fill="#526477"/>
<path d="M14.3281 7.62507H19.8793V6.20461H16.8395V6.14211L17.8509 5.39211C19.1974 4.49438 19.7997 3.76143 19.7997 2.76143C19.7997 1.52279 18.7088 0.556885 17.0156 0.556885C15.3679 0.556885 14.1861 1.43188 14.1861 2.89211H15.8622C15.8622 2.27279 16.3111 1.93188 16.9929 1.93188C17.6293 1.93188 18.1406 2.2387 18.1406 2.78416C18.1406 3.30688 17.7315 3.64211 17.0952 4.15916L14.3281 6.36938V7.62507Z" fill="#526477"/>
</svg>
