<svg width="19" height="13" viewBox="0 0 19 13" fill="none" xmlns="http://www.w3.org/2000/svg">
<path d="M0 1.30688V12.9432H1.31818V4.10234H1.43182L5.06818 12.9432H6.34091L9.97727 4.10234H10.0909V12.9432H11.4091V1.30688H9.72727L5.77273 10.966H5.63636L1.68182 1.30688H0Z" fill="#092C4C"/>
<path d="M13.6207 7.12507H18.8707V6.12507H15.3935V6.07961L16.8707 4.78416C18.1207 3.69325 18.6662 3.05688 18.6662 2.12507C18.6662 0.943249 17.6435 0.0568848 16.1435 0.0568848C14.6435 0.0568848 13.5753 0.920521 13.5753 2.21598H14.7571C14.7571 1.51143 15.3026 1.03416 16.1207 1.03416C16.8935 1.03416 17.4844 1.46598 17.4844 2.14779C17.4844 2.7387 17.0753 3.17052 16.2798 3.87507L13.6207 6.2387V7.12507Z" fill="#092C4C"/>
</svg>
