<svg width="25" height="24" viewBox="0 0 25 24" fill="none" xmlns="http://www.w3.org/2000/svg">
<path d="M20.4999 19.2599H11.4299C10.9799 19.2599 10.6099 18.8899 10.6099 18.4399C10.6099 17.9899 10.9799 17.6199 11.4299 17.6199H20.4999C20.9499 17.6199 21.3199 17.9899 21.3199 18.4399C21.3199 18.8999 20.9499 19.2599 20.4999 19.2599Z" fill="#7E92A2"/>
<path d="M20.4999 12.9699H11.4299C10.9799 12.9699 10.6099 12.5999 10.6099 12.1499C10.6099 11.6999 10.9799 11.3299 11.4299 11.3299H20.4999C20.9499 11.3299 21.3199 11.6999 21.3199 12.1499C21.3199 12.5999 20.9499 12.9699 20.4999 12.9699Z" fill="#7E92A2"/>
<path d="M20.4999 6.66992H11.4299C10.9799 6.66992 10.6099 6.29992 10.6099 5.84992C10.6099 5.39992 10.9799 5.02992 11.4299 5.02992H20.4999C20.9499 5.02992 21.3199 5.39992 21.3199 5.84992C21.3199 6.29992 20.9499 6.66992 20.4999 6.66992Z" fill="#7E92A2"/>
<path d="M5.40993 8.02992C5.18993 8.02992 4.97993 7.93992 4.82993 7.78992L3.91993 6.87992C3.59993 6.55992 3.59993 6.03992 3.91993 5.71992C4.23993 5.39992 4.75993 5.39992 5.07993 5.71992L5.40993 6.04992L7.54993 3.90992C7.86993 3.58992 8.38993 3.58992 8.70993 3.90992C9.02993 4.22992 9.02993 4.74992 8.70993 5.06992L5.98993 7.78992C5.82993 7.93992 5.62993 8.02992 5.40993 8.02992Z" fill="#7E92A2"/>
<path d="M5.40993 14.3299C5.19993 14.3299 4.98993 14.2499 4.82993 14.0899L3.91993 13.1799C3.59993 12.8599 3.59993 12.3399 3.91993 12.0199C4.23993 11.6999 4.75993 11.6999 5.07993 12.0199L5.40993 12.3499L7.54993 10.2099C7.86993 9.88992 8.38993 9.88992 8.70993 10.2099C9.02993 10.5299 9.02993 11.0499 8.70993 11.3699L5.98993 14.0899C5.82993 14.2499 5.61993 14.3299 5.40993 14.3299Z" fill="#7E92A2"/>
<path d="M5.40993 20.3299C5.19993 20.3299 4.98993 20.2499 4.82993 20.0899L3.91993 19.1799C3.59993 18.8599 3.59993 18.3399 3.91993 18.0199C4.23993 17.6999 4.75993 17.6999 5.07993 18.0199L5.40993 18.3499L7.54993 16.2099C7.86993 15.8899 8.38993 15.8899 8.70993 16.2099C9.02993 16.5299 9.02993 17.0499 8.70993 17.3699L5.98993 20.0899C5.82993 20.2499 5.61993 20.3299 5.40993 20.3299Z" fill="#7E92A2"/>
</svg>
