<svg width="24" height="25" viewBox="0 0 24 25" fill="none" xmlns="http://www.w3.org/2000/svg">
<path d="M16 23.25H8.00004C3.38004 23.25 2.52004 21.1 2.30004 19.01L1.55004 11C1.44004 9.95 1.41004 8.4 2.45004 7.24C3.35004 6.24 4.84004 5.76 7.00004 5.76H17C19.17 5.76 20.66 6.25 21.55 7.24C22.59 8.4 22.56 9.95 22.45 11.01L21.7 19C21.48 21.1 20.62 23.25 16 23.25ZM7.00004 7.25C5.31004 7.25 4.15004 7.58 3.56004 8.24C3.07004 8.78 2.91004 9.61 3.04004 10.85L3.79004 18.86C3.96004 20.44 4.39004 21.75 8.00004 21.75H16C19.6 21.75 20.04 20.44 20.21 18.85L20.96 10.86C21.09 9.61 20.93 8.78 20.44 8.24C19.85 7.58 18.69 7.25 17 7.25H7.00004Z" fill="#7E92A2"/>
<path d="M16 7.25C15.59 7.25 15.25 6.91 15.25 6.5V5.7C15.25 3.92 15.25 3.25 12.8 3.25H11.2C8.75004 3.25 8.75004 3.92 8.75004 5.7V6.5C8.75004 6.91 8.41004 7.25 8.00004 7.25C7.59004 7.25 7.25004 6.91 7.25004 6.5V5.7C7.25004 3.94 7.25004 1.75 11.2 1.75H12.8C16.75 1.75 16.75 3.94 16.75 5.7V6.5C16.75 6.91 16.41 7.25 16 7.25Z" fill="#7E92A2"/>
<path d="M12 17.25C9.25004 17.25 9.25004 15.55 9.25004 14.53V13.5C9.25004 12.09 9.59004 11.75 11 11.75H13C14.41 11.75 14.75 12.09 14.75 13.5V14.5C14.75 15.54 14.75 17.25 12 17.25ZM10.75 13.25C10.75 13.33 10.75 13.42 10.75 13.5V14.53C10.75 15.56 10.75 15.75 12 15.75C13.25 15.75 13.25 15.59 13.25 14.52V13.5C13.25 13.42 13.25 13.33 13.25 13.25C13.17 13.25 13.08 13.25 13 13.25H11C10.92 13.25 10.83 13.25 10.75 13.25Z" fill="#7E92A2"/>
<path d="M14 15.27C13.63 15.27 13.3 14.99 13.26 14.61C13.21 14.2 13.5 13.82 13.91 13.77C16.55 13.44 19.08 12.44 21.21 10.89C21.54 10.64 22.01 10.72 22.26 11.06C22.5 11.39 22.43 11.86 22.09 12.11C19.75 13.81 16.99 14.9 14.09 15.27C14.06 15.27 14.03 15.27 14 15.27Z" fill="#7E92A2"/>
<path d="M10 15.28C9.97005 15.28 9.94004 15.28 9.91004 15.28C7.17004 14.97 4.50004 13.97 2.19004 12.39C1.85004 12.16 1.76004 11.69 1.99004 11.35C2.22004 11.01 2.69004 10.92 3.03004 11.15C5.14004 12.59 7.57004 13.5 10.07 13.79C10.48 13.84 10.78 14.21 10.73 14.62C10.7 15 10.38 15.28 10 15.28Z" fill="#7E92A2"/>
</svg>
