<svg width="24" height="25" viewBox="0 0 24 25" fill="none" xmlns="http://www.w3.org/2000/svg">
<path d="M0 4.5C0 2.29086 1.79086 0.5 4 0.5H20C22.2091 0.5 24 2.29086 24 4.5V20.5C24 22.7091 22.2091 24.5 20 24.5H4C1.79086 24.5 0 22.7091 0 20.5V4.5Z" fill="#2DC8A8"/>
<path d="M18.0209 9.44975L10.9498 16.5208C10.5593 16.9113 9.92613 16.9113 9.5356 16.5208L6.70717 13.6924C6.31665 13.3019 6.31665 12.6687 6.70718 12.2782C7.0977 11.8876 7.73086 11.8876 8.12139 12.2782L10.2427 14.3995L16.6067 8.03553C16.9972 7.64501 17.6304 7.64501 18.0209 8.03553C18.4114 8.42606 18.4114 9.05922 18.0209 9.44975Z" fill="#ECECFE"/>
</svg>
